# xmcd
#
# Track frame offsets:
#	150
#	13105
#	24565
#	37062
#	51162
#	62430
#	73625
#	84970
#	97562
#	109300
#	120587
#	132080
#	144947
#	156162
#	168410
#	182012
#	193430
#	204070
#	216250
#	227585
#	238055
#	250642
#	262275
#	272947
#	285267
#	297475
#	308155
#	319055
#	330122
#
# Disc length: 4565 seconds
#
# Revision: 1
# Processed by: cddbd v1.5PL3 Copyright (c) Steve Scherf et al.
# Submitted via: audiograbber 1.80
#
DISCID=9c11d31d
DTITLE=mitchell torok - Mexican Joe In The Caribbean disc 1
DYEAR=1900
DGENRE=
TTITLE0=Nacogdoches County Line 
TTITLE1=I'll Get My Lovin' From Someone Else 
TTITLE2=Clingin' Heart 
TTITLE3=Piney Woods Boogie 
TTITLE4=Yearnin' (& SALLY LEE) 
TTITLE5=Someday (When Someone Hurts You)(& SALLY LEE) 
TTITLE6=Table Hoppin' Blues (& SALLY LEE) 
TTITLE7=Sober Up 
TTITLE8=Little Hoo-Wee 
TTITLE9=Judalina 
TTITLE10=Caribbean 
TTITLE11=Weep Away 
TTITLE12=Caribbean (alt) 
TTITLE13=Hootchy Kootchy Henry (From Hawaii) 
TTITLE14=Gigolo 
TTITLE15=Edgar The Eager Easter Bunny 
TTITLE16=Living On Love 
TTITLE17=The Haunting Waterfall 
TTITLE18=Dancerette 
TTITLE19=The World Keeps Turning Around 
TTITLE20=A Peasant's Guitar 
TTITLE21=Roulette 
TTITLE22=Havana Huddle 
TTITLE23=Smooth Talk (& GALE TOROK) 
TTITLE24=My Silly Old Heart 
TTITLE25=Sit Down You're Rocking The Boat 
TTITLE26=Too Late Now 
TTITLE27=My Kind Of Woman 
TTITLE28=Little Hoo-Wee 
EXTD=
EXTT0=
EXTT1=
EXTT2=
EXTT3=
EXTT4=
EXTT5=
EXTT6=
EXTT7=
EXTT8=
EXTT9=
EXTT10=
EXTT11=
EXTT12=
EXTT13=
EXTT14=
EXTT15=
EXTT16=
EXTT17=
EXTT18=
EXTT19=
EXTT20=
EXTT21=
EXTT22=
EXTT23=
EXTT24=
EXTT25=
EXTT26=
EXTT27=
EXTT28=
PLAYORDER=
